<svg width="29" height="28" viewBox="0 0 29 28" fill="none" xmlns="http://www.w3.org/2000/svg">
<path d="M0.807953 6.62144C0.817809 6.67675 0.825789 6.73207 0.829074 6.78784C0.870849 7.50372 1.41204 13.2155 8.21611 20.17C8.21611 20.17 14.0936 26.1598 20.2795 27.4191C20.3063 27.4246 20.3326 27.4306 20.3593 27.438C20.7339 27.5399 23.9181 28.3447 25.5596 26.6986L27.898 24.4021C27.9191 24.3814 27.9412 24.3611 27.9637 24.3417C28.197 24.1412 29.821 22.6408 28.1965 21.0454C26.5523 19.4306 24.4795 17.4619 24.2448 17.2388C24.2336 17.2282 24.2228 17.2176 24.212 17.2065C24.0848 17.0765 22.8766 15.9075 21.4614 16.9756C21.4206 17.0064 21.3821 17.041 21.3455 17.077L19.0559 19.3315C18.5429 19.8179 17.728 19.8114 17.2225 19.3172L9.40035 11.6648C8.87512 11.1508 8.88873 10.3114 9.43039 9.81406L11.261 8.13431C11.261 8.13431 13.2666 6.31075 11.1126 4.34106L7.91524 1.20099C7.89553 1.18162 7.87675 1.1618 7.85798 1.14106C7.65145 0.912423 6.11894 -0.653003 4.32076 1.08943C4.26584 1.14244 4.20623 1.19038 4.14287 1.23279C3.53268 1.64397 0.325903 3.9414 0.807953 6.62144Z" fill="white"/>
</svg>
