<svg width="36" height="36" viewBox="0 0 36 36" fill="none" xmlns="http://www.w3.org/2000/svg">
<path d="M24 19.35V25.65C24 30.9 21.9 33 16.65 33H10.35C5.1 33 3 30.9 3 25.65V19.35C3 14.1 5.1 12 10.35 12H16.65C21.9 12 24 14.1 24 19.35Z" fill="white"/>
<path d="M25.6506 3H19.3506C14.5348 3 12.3819 4.77968 12.0579 9.11272C12.0164 9.66808 12.4706 10.125 13.0275 10.125H16.6506C22.9506 10.125 25.8756 13.05 25.8756 19.35V22.9731C25.8756 23.53 26.3325 23.9842 26.8879 23.9427C31.2209 23.6187 33.0006 21.4659 33.0006 16.65V10.35C33.0006 5.1 30.9006 3 25.6506 3Z" fill="white"/>
</svg>
