<svg width="24" height="23" viewBox="0 0 24 23" fill="none" xmlns="http://www.w3.org/2000/svg">
<path d="M22.8293 9.50045L13.4474 9.5C13.0331 9.5 12.6973 9.83575 12.6973 10.25V13.247C12.6973 13.6612 13.0331 13.997 13.4473 13.997H15.9018C17.2649 13.997 18.1626 15.3886 17.2137 16.3671C16.4681 17.136 16.1285 18.3055 16.6643 19.2329L16.8199 19.5023C17.4425 20.5801 18.8408 20.9646 19.7834 20.1516C22.2733 18.0039 23.6977 14.9442 23.6977 11.5925C23.6977 11.008 23.6546 10.5902 23.5685 10.1197C23.503 9.76225 23.1926 9.50045 22.8293 9.50045Z" fill="#167EE6"/>
<path d="M12.1968 18.5C10.4164 18.5 8.79176 17.8302 7.55673 16.7306C6.62919 15.9047 5.2711 15.4989 4.1951 16.1191C3.11669 16.7407 2.73242 18.1381 3.55229 19.0746C5.65817 21.4802 8.752 23 12.1968 23C14.2817 23 16.2489 22.4391 17.9439 21.4614C17.9459 21.4603 17.9471 21.4582 17.9471 21.4559C17.9471 21.4548 17.9468 21.4537 17.9462 21.4528L17.4715 20.6309C16.4904 18.9327 14.2702 18.4676 12.3093 18.4991C12.2719 18.4997 12.2344 18.5 12.1968 18.5Z" fill="#12B347"/>
<path d="M17.9444 21.4615C17.9463 21.4604 17.9475 21.4583 17.9475 21.4561C17.9475 21.4549 17.9472 21.4538 17.9467 21.4529L16.6122 19.1429C16.1057 18.2662 15.0122 17.983 14.0361 18.2519C13.0611 18.5206 12.1973 19.32 12.1973 20.3312V20.7502C12.1973 21.9928 13.2141 23.0228 14.4331 22.7815C15.6866 22.5334 16.8702 22.0811 17.9444 21.4615Z" fill="#0F993E"/>
<path d="M5.19747 11.5005C5.19747 11.022 5.24651 10.555 5.33941 10.1038C5.59076 8.88306 5.26589 7.49806 4.18604 6.87568C3.11162 6.25642 1.7142 6.61887 1.31215 7.792C0.913282 8.95584 0.697266 10.2035 0.697266 11.5005C0.697266 12.7975 0.913282 14.0452 1.31215 15.209C1.7142 16.3822 3.11162 16.7446 4.18605 16.1254C5.26589 15.503 5.59076 14.118 5.33941 12.8972C5.24651 12.446 5.19747 11.9791 5.19747 11.5005Z" fill="#FFD500"/>
<path d="M12.1968 4.5C13.8829 4.5 15.4316 5.09908 16.6412 6.09558C16.9397 6.3414 17.3734 6.32365 17.6468 6.0503L19.7703 3.92685C20.0805 3.61671 20.0584 3.10904 19.727 2.82163C17.7003 1.06344 15.0633 0 12.1968 0C8.752 0 5.65817 1.51982 3.55229 3.9254C2.73242 4.86195 3.11669 6.25938 4.1951 6.88093C5.2711 7.5011 6.62919 7.09535 7.55673 6.26947C8.79176 5.16981 10.4164 4.5 12.1968 4.5Z" fill="#FF4B26"/>
<path d="M16.6417 6.09558C16.9401 6.3414 17.3739 6.32365 17.6472 6.0503L19.7708 3.92685C20.0809 3.61671 20.0588 3.10904 19.7275 2.82163C18.2409 1.53199 16.426 0.616177 14.433 0.219624C13.2143 -0.0228798 12.1973 1.00736 12.1973 2.25C12.1973 3.49264 13.2301 4.46446 14.4088 4.85789C15.2313 5.13239 15.9862 5.55565 16.6417 6.09558Z" fill="#D93F21"/>
</svg>
