<svg width="72" height="56" viewBox="0 0 72 56" fill="none" xmlns="http://www.w3.org/2000/svg">
<path d="M23.2875 28.275C23.2875 29.8 22.075 30.9625 20.5375 30.9625C19.3875 30.9625 18.5375 30.3125 18.5375 29.0875C18.5375 27.5625 19.725 26.3375 21.25 26.3375C22.4125 26.3375 23.2875 27.05 23.2875 28.275ZM10.0625 22.2125H9.475C9.2875 22.2125 9.1 22.3375 9.075 22.55L8.5375 25.8875L9.5625 25.85C10.9375 25.85 12 25.6625 12.25 24.075C12.5375 22.4 11.475 22.2125 10.0625 22.2125ZM45.5625 22.2125H45C44.775 22.2125 44.625 22.3375 44.6 22.55L44.075 25.8875L45.075 25.85C46.7 25.85 47.825 25.475 47.825 23.6C47.8125 22.275 46.625 22.2125 45.5625 22.2125ZM72 6V50C72 53.3125 69.3125 56 66 56H6C2.6875 56 0 53.3125 0 50V6C0 2.6875 2.6875 0 6 0H66C69.3125 0 72 2.6875 72 6ZM16.0375 22.925C16.0375 20.3 14.0125 19.425 11.7 19.425H6.7C6.3875 19.425 6.075 19.675 6.05 20.0125L4 32.775C3.9625 33.025 4.15 33.275 4.4 33.275H6.775C7.1125 33.275 7.425 32.9125 7.4625 32.5625L8.025 29.2375C8.15 28.3375 9.675 28.65 10.275 28.65C13.85 28.65 16.0375 26.525 16.0375 22.925ZM26.5625 24.025H24.1875C23.7125 24.025 23.6875 24.7125 23.6625 25.05C22.9375 23.9875 21.8875 23.8 20.7 23.8C17.6375 23.8 15.3 26.4875 15.3 29.45C15.3 31.8875 16.825 33.475 19.2625 33.475C20.3875 33.475 21.7875 32.8625 22.575 31.9875C22.5125 32.175 22.45 32.575 22.45 32.7625C22.45 33.05 22.575 33.2625 22.85 33.2625H25C25.3375 33.2625 25.625 32.9 25.6875 32.55L26.9625 24.5125C27 24.275 26.8125 24.025 26.5625 24.025ZM31.625 36.2625L39.5875 24.6875C39.65 24.625 39.65 24.5625 39.65 24.475C39.65 24.2625 39.4625 24.0375 39.25 24.0375H36.85C36.6375 24.0375 36.4125 24.1625 36.2875 24.35L32.975 29.225L31.6 24.5375C31.5 24.2625 31.225 24.0375 30.9125 24.0375H28.575C28.3625 24.0375 28.175 24.2625 28.175 24.475C28.175 24.625 30.6125 31.575 30.825 32.2375C30.4875 32.7125 28.2625 35.8125 28.2625 36.1875C28.2625 36.4125 28.45 36.5875 28.6625 36.5875H31.0625C31.2875 36.575 31.5 36.45 31.625 36.2625ZM51.5375 22.925C51.5375 20.3 49.5125 19.425 47.2 19.425H42.2375C41.9 19.425 41.5875 19.675 41.55 20.0125L39.525 32.7625C39.5 33.0125 39.6875 33.2625 39.925 33.2625H42.4875C42.7375 33.2625 42.925 33.075 42.9875 32.8625L43.55 29.2375C43.675 28.3375 45.2 28.65 45.8 28.65C49.35 28.65 51.5375 26.525 51.5375 22.925ZM62.0625 24.025H59.6875C59.2125 24.025 59.1875 24.7125 59.15 25.05C58.4625 23.9875 57.4 23.8 56.1875 23.8C53.125 23.8 50.7875 26.4875 50.7875 29.45C50.7875 31.8875 52.3125 33.475 54.75 33.475C55.9125 33.475 57.3125 32.8625 58.0625 31.9875C58.025 32.175 57.9375 32.575 57.9375 32.7625C57.9375 33.05 58.0625 33.2625 58.3375 33.2625H60.5C60.8375 33.2625 61.125 32.9 61.1875 32.55L62.4625 24.5125C62.5 24.275 62.3125 24.025 62.0625 24.025ZM68 19.8625C68 19.6125 67.8125 19.425 67.6 19.425H65.2875C65.1 19.425 64.9125 19.575 64.8875 19.7625L62.8625 32.7625L62.825 32.825C62.825 33.05 63.0125 33.2625 63.2625 33.2625H65.325C65.6375 33.2625 65.95 32.9 65.975 32.55L68 19.9V19.8625ZM56.75 26.3375C55.225 26.3375 54.0375 27.55 54.0375 29.0875C54.0375 30.3 54.9125 30.9625 56.0625 30.9625C57.5625 30.9625 58.775 29.8125 58.775 28.275C58.7875 27.05 57.9125 26.3375 56.75 26.3375Z" fill="white"/>
</svg>
