<svg width="72" height="56" viewBox="0 0 72 56" fill="none" xmlns="http://www.w3.org/2000/svg">
<path d="M58.7625 24.9125C58.7625 24.9125 59.7125 29.5625 59.925 30.5375H55.75C56.1625 29.425 57.75 25.1 57.75 25.1C57.725 25.1375 58.1625 23.9625 58.4125 23.2375L58.7625 24.9125ZM72 6V50C72 53.3125 69.3125 56 66 56H6C2.6875 56 0 53.3125 0 50V6C0 2.6875 2.6875 0 6 0H66C69.3125 0 72 2.6875 72 6ZM19.0625 37.4L26.9625 18H21.65L16.7375 31.25L16.2 28.5625L14.45 19.6375C14.1625 18.4 13.275 18.05 12.175 18H4.0875L4 18.3875C5.975 18.8875 7.7375 19.6125 9.275 20.525L13.75 37.4H19.0625ZM30.8625 37.425L34.0125 18H28.9875L25.85 37.425H30.8625V37.425ZM48.35 31.075C48.375 28.8625 47.025 27.175 44.1375 25.7875C42.375 24.9 41.3 24.3 41.3 23.3875C41.325 22.5625 42.2125 21.7125 44.1875 21.7125C45.825 21.675 47.025 22.0625 47.925 22.45L48.375 22.6625L49.0625 18.4625C48.075 18.075 46.5 17.6375 44.5625 17.6375C39.6 17.6375 36.1125 20.2875 36.0875 24.0625C36.05 26.85 38.5875 28.4 40.4875 29.3375C42.425 30.2875 43.0875 30.9125 43.0875 31.75C43.0625 33.05 41.5125 33.65 40.075 33.65C38.075 33.65 37 33.3375 35.3625 32.6125L34.7 32.3L34 36.6625C35.175 37.2 37.35 37.675 39.6 37.7C44.875 37.7125 48.3125 35.1 48.35 31.075ZM66 37.425L61.95 18H58.0625C56.8625 18 55.95 18.35 55.4375 19.6125L47.975 37.425H53.25C53.25 37.425 54.1125 35.025 54.3 34.5125H60.75C60.9 35.2 61.35 37.425 61.35 37.425H66Z" fill="white"/>
</svg>
